<svg xmlns="http://www.w3.org/2000/svg" viewBox="0 0 433.84 594.06"><defs><style>.cls-1{fill:#ffb835;}.cls-2{fill:#004244;}.cls-3{fill:#5d9154;}.cls-4{fill:#fff;}.cls-5,.cls-8{fill:#001d43;}.cls-6{fill:#d3ecce;}.cls-7{fill:#f5f4ed;}.cls-8{font-size:27.88px;font-family:Helvetica-Bold, Helvetica;font-weight:700;}</style></defs><g id="Layer_2" data-name="Layer 2"><g id="Layer_1-2" data-name="Layer 1"><path class="cls-1" d="M120.88,425.86c0,39,52.76,48.54,90.64,31.56,1.17-.09-2.05,4.22-2.4,4.57-6.37,6.37-70.55,51.29-107.57,2.18C67.19,418.59,106.22,348.58,114,344.23c10.1-5.66,66.55,21.09,58,29.6C172,373.83,120.88,388.79,120.88,425.86Z"/><path class="cls-2" d="M129.72,275.53c-14.1,9.47-24.86,21.4-43.51,24.05,2.78,2.13,13.88,5.32,17.48,3.56.38-.16.88-.89,1.12-.55-2.46,3-7.09,3.9-10.44,5.85-6.69,3.16-14.31,6.43-21.75,7-.9.06-6.64-.13-6.94.7,2.31,7.41,13,11.25,20.52,10.19,1.12-.15-2.76.46-3.4.62-9.81,2.6-20.16,3.65-29.77,6.72.08,1.39,2.34,1.37,3.23,1.62,4,1.17,8.48,2.31,12.52,3.12-12.57,5.05-27.55,7.35-39.27,14.26,7.18,6.4,18.51,3.88,27.25,2.64-5.25-.46-10.73,4.08-15.94,5.55-9,3.58-19.22,5.66-27.79,9.63,3.9,7.53,18.41,4.28,25.2,2.75C28,379,17.15,384.49,7.36,391.08c-3.11,2.27-8.52,4.82-1.06,5.6a30.87,30.87,0,0,0,18.5-1.79c.7.68-7,5.33-7.66,5.86A141.5,141.5,0,0,0,0,416.67c.16,3.64,15.27-1.52,16.93-2.85a19.74,19.74,0,0,1-2,1.38c-7.29,6.71-10.57,17.37-13.28,26.24.64.36,2.8-2.46,3-2.71,3.34-3.36,9.1-7.65,12.09-10.57-5,10.59-10,23.12-6.39,35.11a32.11,32.11,0,0,1,7.54-13.21c1.11-1.15,2.94-3.88,4.48-3.69.44,1.55-3.29,8.55-3.73,10.39-2.87,4,.33,44.57,4.05,25.23,1.67-6.25,4.28-12.25,9.41-16.38,1.52,4.17-2.29,10.57-2.57,14.9-.3,5.31.4,17.12,4.73,20.32,2.07.09,2.67-4.38,3.1-5.72a33,33,0,0,1,7.54-13.2c9.22-11.21-4,23.26-.06,27,.31,1.1,1.31,5.54,2.93,5.85,1.4.27,1.84-3.79,2.14-4.64a59.18,59.18,0,0,1,9.84-16c4,10-9.51,21.57,7.85,30.48,4.88,1.1,3.5-12.77,6.06-16,5.47-10.48,4.26,4.72,3.77,8-.14,6.36,2.3,12.5,8.56,14.73,1.1-.54.53-4.83.58-5.69.48-5.39,1.16-12.94,5.37-16.38,2.74,9,3.21,23.9,15.94,23.69,1.85-3.69-1-11,2-14.5,5.9,4.36,7.91,15.2,18.32,13.81,7.7.06,3.27-11.06,3.43-15.49,4,5.57,9.45,10.89,15.88,13.34,2.56-3.18-.22-8.7.12-12.59.09-.74-1-5.11.95-2.34,2.84,3.72,22.53,16.27,19.63,4.22-1.25-4.29-2.94-8.83-3.06-13.19.9-.12,3.34,2.58,4,3,4.23,2.49,11.62,7.35,16,3.53.77-2.11-.82-4.91-1.48-6.84-1.14-3.37-1.49-8.4-1.83-11.69,19.91,12.95,13.88,1.37,9.16-12.39.55-.72,3.5,1.27,4,1.51,3.22,1.57,6.75,2.6,10.16.92,1.75-.86-1.69-8.63-2.38-10-.16-.32-1.17-1.74-.61-2.13s3.31.79,4.09,1c3.12,1,7.48-3.25,6-6.43-7.57-11.13-16.45,8.71-21.24,13.63-21.93,21-52.57,34.1-83.25,28.13-9.14-.2-17.07-4.76-24-10.34-8.11-4.41-14.92-10.17-21.61-16.45C40.93,466.16,36,446.57,37.91,421.57c1.64-24.16,14.63-46.52,31.61-63.11,5.27-8.07,11-15.76,18.73-21.68,7.62-11.94,24.19-16.52,27.33-31.14a109.56,109.56,0,0,0,4.12-15.11c.21-1.14,7.31-3.59,7.3-4.74C127,284.1,130,277.25,129.72,275.53Z"/><path class="cls-2" d="M217.39,30.62S226.74,2.63,245,0c0,0-15.66,16.67-13.68,25.85,0,0,10.44-16.75,21.18-16.75,0,0-14.71,20.77-11.1,25.56S217.39,30.62,217.39,30.62Z"/><path class="cls-3" d="M279.27,111.33C273.91,70.11,268,21.15,228.56,26.22c-48.93,6.29-47.82,52.34-49.64,90.63-29.86,24.45-95.45,37.37-93.52,58,1.38,14.81,29.95,22.12,38.7,60,4.17,18.05-27.33,21.56-21.13,25.28,3.83,2.3,12.91-2.65,14.22-1.78s-4.76,9.8,1.38,7.31c6.69-2.72,12.52-6.9,16.29-12.31-1,4.66-1.88,9.53-2.65,14.65C100.15,334.69-5.27,356.56,23.57,445.71c33.69,104.13,176.22,85.88,190.2,7.7C168.92,497.88,102.7,495.57,97.42,434s46.51-82.21,46.51-82.21l0-.15c6.88,10,16.35,18.06,28.59,23.81,4.44,7.4,11,16.87,8.15,21.84-2.08,3.59-25.47,2.62-24,11.3,1.26,7.54,17.11.7,20.94.81,10.53.28,30.9,4,40.29-1.81,4.47-2.75.32-14.42-4-22.12a204.07,204.07,0,0,0,21.13.49,122.24,122.24,0,0,0,24.54-3.18c-2.38,8.38-7.12,17.09.37,22.94,4.66,3.62,23.61,1,38.94-.08,11.8-.82,21.16.43,22-.66,7.42-9.28-26.4-13.33-31-16.62-4.26-3.05.34-12.08,3.82-20,24.36-16.1,42.6-44.87,38.48-92.75A183.71,183.71,0,0,0,329.15,254a41.69,41.69,0,0,0,9.35,5.23c6.14,2.49,0-6.41,1.38-7.3s10.39,4.07,14.22,1.77c6.2-3.71-25.3-7.23-21.13-25.27,8.75-37.92,37.32-45.22,38.7-60C373.58,148.05,309.62,135.19,279.27,111.33ZM139.18,236.26a31.41,31.41,0,0,0-1.6-6.92c-6.47-18.49-16.82-42.65-15.85-47,1.12-5,13.66-3.08,25.1-7.31,8.46-3.13,16.9-8.95,24.09-14.14C162.51,183,148.64,204.08,139.18,236.26ZM319.5,222.91l-.08.24c-9.49-22.36-22-40.18-31.13-67.14,6.7,4.77,14.32,9.78,21.95,12.61,11.44,4.23,24,2.34,25.1,7.31C336.31,180.27,326,204.43,319.5,222.91Z"/><path class="cls-4" d="M197.19,35c0-9,5.24-16.31,11.71-16.31S220.6,26,220.6,35s-5.24,16.3-11.7,16.3S197.19,44,197.19,35Z"/><path class="cls-4" d="M233.27,35c0-9,5.24-16.31,11.7-16.31S256.68,26,256.68,35s-5.24,16.3-11.71,16.3S233.27,44,233.27,35Z"/><path class="cls-5" d="M241.37,149.84c0-2.64,1.61-4.79,3.6-4.79s3.61,2.15,3.61,4.79-1.61,4.79-3.61,4.79S241.37,152.49,241.37,149.84Z"/><path class="cls-5" d="M241.37,34.66c0-2.44,1.61-4.41,3.6-4.41s3.61,2,3.61,4.41S247,39.07,245,39.07,241.37,37.09,241.37,34.66Z"/><path class="cls-5" d="M205.29,35c0-2.44,1.61-4.42,3.61-4.42s3.6,2,3.6,4.42-1.61,4.41-3.6,4.41S205.29,37.47,205.29,35Z"/><path class="cls-5" d="M213.9,152.93c-.66-2.56.38-5,2.3-5.54s4,1.18,4.69,3.74-.37,5.05-2.31,5.54S214.56,155.49,213.9,152.93Z"/><path class="cls-4" d="M186.55,78.81c-2.27,2.27-5.94,8.37-5.94,8.37S190,95.07,189,95.83s-5.18,6.78-4.42,8.29c.66,1.33,4.88,0,5.06.88.43,2.13-5,5.82-3.3,8.36,1,1.51,3.29-1.47,4.18-.88,1,.7-4.61,9.56-2.86,11.89,1,1.31,3.95-3.52,4.84-3.52,5.68,0-6.84,19.48-1.76,16.94,9.73-4.86-2.51-1.68,3.52,8.37.53.87,3.76-4.82,4.18-4.18,1.38,2.06-3.68,13.88-1.1,14.74,1,.32,2.36-4.21,2.86-4,1.66.83-2.69,13.72.23,14.31,1.53.3,4-6.83,5.5-5.29,1.25,1.25.77,13.51,2.86,13,.92-.23,3.95-7.49,5.28-6.16,1.91,1.91.56,11.91,3.08,12.54,1.56.39,4.42-9.63,5.5-8.14,8.65,11.93,1.44,16.2,10.13,0,.62-1.17,4.84,7.26,5.94,6.16s0-8.36,1.76-8.36c2,0,5.78,9.26,7.26,8.14,2.17-1.62-1.24-9,.44-11.22.38-.51,6,6.34,8.37,4.84,4.36-2.73-2-11.1-1.32-14.31.32-1.63,6.84,4.81,8.14,2.86,2.38-3.56-4.81-8.63-3.52-10.78.42-.7,4.05.22,5.06-.66,3.35-2.93-2.27-5.42-1.76-7.48.33-1.33,4.81-.25,5.5-2,1.4-3.5-7.73-10.08-1.1-9.25.41.05,3.83.28,3.74-.44-.11-.95-5.43-8.4-4.84-8.8,1.84-1.22,7-3.45,9-5,.33-.26-8.48-1.94-8.81-6.42-.34-4.64,6.44-6.83,6.44-6.83s-5.68-5.14-6.44-9.3c-.63-3.45,3.59-4.32,6.44-5.74.85-.42-4.93-15.06-6.44-10.57-.33,1-.2,16.28-.2,19.47,0,27.87-.66,78.19-41.16,72.41-27.25-3.9-27.89-45.84-34.55-65.81C189,98.57,189.44,75.92,186.55,78.81Z"/><path class="cls-2" d="M230.68,173c-11.06,0-21.14-5-26.48-13.4C192.37,141,183.72,69.24,183.36,66.19a2.12,2.12,0,0,1,4.21-.5c.09.74,8.89,73.79,20.2,91.59,5.22,8.21,15.85,12.6,27.07,11.18,10.89-1.38,19.22-7.84,22.28-17.28,7.3-22.46,7.4-95.19,7.4-95.93a2.11,2.11,0,0,1,2.12-2.11h0a2.11,2.11,0,0,1,2.12,2.11c0,3-.11,74.15-7.61,97.24-3.58,11-13.22,18.58-25.78,20.17A37.16,37.16,0,0,1,230.68,173Z"/><path class="cls-5" d="M273.08,20.85c-8.75,0-11.66-7.58-12-11.59a2.12,2.12,0,0,1,4.23-.34c.07.8.87,7.7,7.75,7.7a2.12,2.12,0,1,1,0,4.23Z"/><path class="cls-5" d="M184.06,20.85a2.12,2.12,0,1,1,0-4.23c6.88,0,7.68-6.91,7.75-7.7a2.12,2.12,0,0,1,4.23.34C195.72,13.27,192.81,20.85,184.06,20.85Z"/><path class="cls-6" d="M211.43,101.35c.32.55,1.12.5.76-.19a92.17,92.17,0,0,0,2.67,10.47c1.33-.8,3.92-.2,5.33-.76-.1-2.62.36-8.91-.77-11.23C218.24,99.42,209.56,98.91,211.43,101.35Z"/><path class="cls-6" d="M238.45,95.26c-.6,2.56-.18,6.46-.76,8.76-.19.76-1,1.61-.57,2.28,0,.06,4.21,0,4.57,0s1.8.49,2.09.19c-1.14-5.55,6.94-13.91.57-11.8C242.41,95.08,238.91,93.34,238.45,95.26Z"/><path class="cls-6" d="M233.79,113.53c-.65-.67-.37,2.78-.47,3.43s-1.72,7.32-1.34,7.61c1.79-1.5,5.59-.55,7.43-1.9a23.48,23.48,0,0,1,0-9.52c-.26-.51-1,.61-1.53.76C236.58,114.28,234.73,114.5,233.79,113.53Z"/><path class="cls-6" d="M219.52,119.91c2.24,2.74,3.62,7.14,4.28,10.18.76-1.53.43-2.56,1.9-4.19.9-1,1.79-1,1.72-1.52-.28-1.92-1.55-5.15-3.43-6.09C222.54,117.56,218.39,118.39,219.52,119.91Z"/><path class="cls-6" d="M209.91,84.89c3,.27,1.31,7.09,1.9,8.85.19.55,2.1-.71,2.29-.76a19.93,19.93,0,0,1,3.61-.38c.35,0,3.18.06,3.43-.19.85-2.31,1.19-6.91-.76-8.75C218.32,83.11,209.23,81.52,209.91,84.89Z"/><path class="cls-6" d="M234.84,81.66c-1.71-.69-.16,4.22-.38,4.85a44.92,44.92,0,0,0,.19,4.57c.73.24,1.16-1.11,1.9-1.33,2-.76,6.27.73,8,.19,1.72-3.15-2.21-7.24-.38-10.47A28,28,0,0,0,234.84,81.66Z"/><path class="cls-6" d="M80.86,334.32c-.52-1.26-1.91,1.42-2.63,2.06a22.16,22.16,0,0,0-2.74,2.74c-.87,1.23,3,.94,3.66,1.14s2.54,1.25,3.2.92.3-2.58.46-3.2C84.34,334.68,82.52,335.82,80.86,334.32Z"/><path class="cls-6" d="M60.39,356.85c2.11,1.18-1.88,3.42-1.37,4.46.89.77,2.51-.41,3.43,0,.59.23.3.82,1.15.68,3.86-1.23.68-6.92,3.66-9.15,1-1.26-1.91.63-2.29.69C63.14,354.14,57.48,355.2,60.39,356.85Z"/><path class="cls-6" d="M43.13,370.34c-.75-.42,0-.12-.35.8-1.11,1.8-2.29,3.65-3.2,5.49-.28.47-1.37,1.07-.91,1.37s2.32,0,3,.23,2.6,1.52,3.2.91c.24-3.45,4.35-6,5-9.14C49.37,369.23,43.8,370.73,43.13,370.34Z"/><path class="cls-6" d="M49.19,391.61c-.75-2.55-3.22,10.14-2.52,10.41.3.2,1.46-.87,1.83-.92,1.17-.4,2.15.52,3,.69-.14-1.23-1.08-2.82-.68-4.35C50.77,395.53,53,389,49.19,391.61Z"/><path class="cls-6" d="M30.43,400.42c-.56.29-.93-.62-.45-.69-.93,2.89-2.36,6-1.83,9.15.16.22,1,5.16,1.6,2.29,1.46-1.82,4.54-1.93,6.4-2.06-1.19-2.38-1.21-5.38-1.6-8C34.7,396.88,32.39,398.7,30.43,400.42Z"/><path class="cls-6" d="M31.92,424.54c.08,3.26,2.88,8.19,4,11.1.06,0,2.5-1.32,2.75-1.38s3,.3,3.2,0c.11-1.94-2.7-9.88-4.35-11-1.18-.29-2.74.25-3.89.46C32.26,424,32.05,423.39,31.92,424.54Z"/><path class="cls-6" d="M42.67,451.76c-.71,4,1.1,4.31,3.54,7.2,1.39,2,3.14,5.92,5.26,1.83,2.51-1.37,1.25-2,.23-4.11-1.32-4-2.83-2.84-5.26-5.26C45,447.83,43.35,448.39,42.67,451.76Z"/><path class="cls-6" d="M51.59,435.86c1.58,2.19,1.89,7.25,3.54,9.84.38,0-.06-.77,0-1.14a3,3,0,0,1,.69-1.38,12.25,12.25,0,0,1,3.2-2.06c.42-.18,1.37.24,1.37-.23-.43-1.7-3.78-6-4.57-7.77C54.68,433.33,51.25,434.3,51.59,435.86Z"/><path class="cls-6" d="M144.23,145.35h-.59"/><path class="cls-6" d="M148.94,138.56c-.59.55.41,4,1.3,4.42,2.72-3.14,8.28-4.55,12-5.85.23-.47-1-3.4-1.64-3.4C157.28,136,152.33,136.2,148.94,138.56Z"/><path class="cls-6" d="M138.87,151.56c-.54.15.15,7,1.43,4.36,3.59-1.88,7.73-2.67,11.3-4.63.53-.53-2.1-3.62-2.45-4.09-.07-.08,0-.27-.14-.27C145.8,148.38,141.61,149.47,138.87,151.56Z"/><path class="cls-6" d="M120.9,158c-.05.69,1.91,4.66,2.11,4.9,2-3.13,7.36-3.29,10.07-5A18,18,0,0,0,130,153.6c-.38,0-1.87,1.32-2.31,1.5C125.91,155.79,121.27,156,120.9,158Z"/><path class="cls-6" d="M313.31,141.79a38.05,38.05,0,0,1,10.46,5.38c.94-1.13.68-4.59,2.55-5.17-3.54-.74-7.37-2.59-10.79-3.21-.19.18-.46,1-.69,1.23C314.38,140.54,312.7,141.47,313.31,141.79Z"/><path class="cls-6" d="M331.63,153.83c2.38,2.67,7,2.48,9.6,4.86.21-1.45,1.56-3,2.25-4.29-3.25-1.81-7.33-1.94-10.77-3.06A9.17,9.17,0,0,0,331.63,153.83Z"/><path class="cls-6" d="M340.06,197.52c-2.14.21-3.31,4.73-4.22,6.54-.42.83-1.77,2.72-1.77,3.77.16-1.21,3.2-.29,4-.22.94,1.16.61.63.66-.45C339,203.68,348.33,196.77,340.06,197.52Z"/><path class="cls-6" d="M97,498c9.64,4.37,11-1.4,6.67,8.38-1.63-.13-6.78-3-8.62-1.94C94.65,503.34,96.37,497.73,97,498Z"/><path class="cls-6" d="M141.64,500.39c-.68.89.26,1.72.34,2.84.09.49-.06,1.32.05,1.68,1.83-2.77,5.67-1.79,8.4-2.93.33-.21,0-.51.15-.76s.85-.8.8-1.29-1.34-1.89-1.82-1.87C147.15,499.45,143.38,498,141.64,500.39Z"/><path class="cls-1" d="M228,202.88c29.16,0,22.11,46.08,28.64,56.72,5.83,9.5,26.35,34.45,28.38,58.83S274.07,368,234.93,368c-48.24,0-63.78-29.71-60.08-58.22,2.83-21.73,20.37-42.56,22.34-50.13C201.74,242.13,198.87,202.88,228,202.88Z"/><path class="cls-5" d="M229.66,338.66c0-2.65,1.62-4.79,3.61-4.79s3.61,2.14,3.61,4.79-1.62,4.79-3.61,4.79S229.66,341.3,229.66,338.66Z"/><path class="cls-7" d="M226.82,233.52c-6,0-11.09-2.1-16.31-4.26-1.22-.5-2.46-1-3.74-1.51a2.12,2.12,0,0,1,1.54-3.95c1.31.51,2.57,1,3.82,1.55,9.88,4.09,17.68,7.31,33-2.74a2.12,2.12,0,1,1,2.33,3.54C239.07,231.64,232.52,233.52,226.82,233.52Z"/><path class="cls-7" d="M223.67,258.61a48.66,48.66,0,0,1-20.76-4.5,2.12,2.12,0,1,1,1.83-3.82c15.11,7.22,34,3.72,38.87-2.07a2.12,2.12,0,0,1,3.24,2.73C242.93,255.61,233.83,258.61,223.67,258.61Z"/><path class="cls-7" d="M223.83,291.81c-9.54,0-20.73-2.39-33.41-9.07a2.12,2.12,0,0,1,2-3.75c35.28,18.58,58,1.92,64.16-3.63a2.3,2.3,0,0,1,2.55-.64,2.11,2.11,0,0,1,1.12,2.78,2.08,2.08,0,0,1-.69.88l-.14.12A53.35,53.35,0,0,1,223.83,291.81Z"/><path class="cls-7" d="M224.84,325.84a100.94,100.94,0,0,1-42.47-9.37,2.12,2.12,0,0,1,1.81-3.84c31.57,14.86,71.38,11,86.92-8.41a2.12,2.12,0,1,1,3.3,2.65C264.48,319.27,245.54,325.84,224.84,325.84Z"/><path class="cls-7" d="M230.42,357.65c-15.52,0-30.79-3.2-42.38-9a2.12,2.12,0,0,1,1.91-3.79c13.65,6.89,32.76,9.91,51.11,8.06,17.47-1.75,31.21-7.62,35.85-15.32a2.12,2.12,0,1,1,3.63,2.19c-5.4,8.95-20,15.44-39.06,17.35A110.38,110.38,0,0,1,230.42,357.65Z"/><path class="cls-7" d="M146.19,385a2.16,2.16,0,0,1-.62-.09,2.13,2.13,0,0,1-1.41-2.65c.89-2.9-2.09-5.92-3.41-7.09-4.55-4-11.84-6.48-15-5.06a2.12,2.12,0,0,1-1.73-3.87c5.34-2.39,14.3,1.13,19.55,5.75,4.15,3.67,5.8,7.75,4.65,11.51A2.12,2.12,0,0,1,146.19,385Z"/><path class="cls-7" d="M129.72,398.64a2.1,2.1,0,0,1-2.11-2.11c-.1-.88-2.25-4-5.79-5.72s-7.41-1.42-11.15,1a2.12,2.12,0,1,1-2.29-3.57c5.21-3.34,10.92-3.63,16.07-.82,4.08,2.23,7.39,6.32,7.39,9.13A2.11,2.11,0,0,1,129.72,398.64Z"/><path class="cls-7" d="M118.46,420.28a2.07,2.07,0,0,1-1-.27,8.2,8.2,0,0,1-1.15-.84c-2.18-1.79-6.72-5.5-14.45,0a2.12,2.12,0,0,1-2.45-3.46c10.36-7.34,17.3-1.66,19.59.21.23.19.41.35.55.44a2.1,2.1,0,0,1,.81,2.87A2.13,2.13,0,0,1,118.46,420.28Z"/><path class="cls-7" d="M101.52,447.07a2.16,2.16,0,0,1-1.44-.56,2.13,2.13,0,0,1-.12-3c4.51-4.87,13.79-8.61,20.7-8.3a2.12,2.12,0,0,1-.18,4.24c-5.74-.25-13.7,2.93-17.4,6.94A2.13,2.13,0,0,1,101.52,447.07Z"/><path class="cls-7" d="M116.05,472.73a2.12,2.12,0,0,1-2.11-1.91c-.83-8.38,10.47-17.76,17.5-18.45a2.12,2.12,0,1,1,.42,4.21c-5.54.55-14.23,8.5-13.7,13.82a2.13,2.13,0,0,1-1.9,2.32Z"/><path class="cls-7" d="M146.39,483.76a2.11,2.11,0,0,1-2.1-1.85c-1.33-10.62,3.55-14.57,8.66-17.7a2.12,2.12,0,1,1,2.21,3.61c-3.82,2.35-7.77,4.77-6.67,13.56a2.12,2.12,0,0,1-1.84,2.37Z"/><path class="cls-7" d="M178.57,477.19a2.13,2.13,0,0,1-2.09-1.76,20.29,20.29,0,0,1,.06-7.2,2.12,2.12,0,1,1,4.13.92,16.35,16.35,0,0,0,0,5.55,2.1,2.1,0,0,1-1.72,2.45A1.47,1.47,0,0,1,178.57,477.19Z"/><text class="cls-8" transform="translate(426.09 580.65)"> </text></g></g></svg>